<?xml version="1.0" encoding="utf-8"?>
<!DOCTYPE svg PUBLIC "-//W3C//DTD SVG 20010904//EN" "http://www.w3.org/TR/2001/REC-SVG-20010904/DTD/svg10.dtd">
<svg version="1.0" xmlns="http://www.w3.org/2000/svg" width="1030px" height="404px" viewBox="0 0 1030 404" preserveAspectRatio="xMidYMid meet">
 <g fill="#000000">
  <path d="M604.3 385.1 c-2.3 -1.5 -3.4 -5 -2.1 -7.1 1.7 -2.7 2.3 -2.8 15.6 -4 20.7 -1.9 25 -2.8 46.7 -9.7 4.4 -1.4 11.2 -4 15 -5.8 3.9 -1.8 9.5 -4.5 12.5 -5.9 22.3 -10.4 49.4 -31.8 66 -52.1 14.5 -17.8 29.7 -43.7 35.3 -60.5 3.8 -11.1 7.7 -24.8 8.8 -30.5 0.5 -2.7 1.5 -8.3 2.4 -12.4 0.8 -4.1 1.6 -10.8 1.7 -14.9 0.1 -5.6 0.6 -8 2.1 -9.8 2.4 -3.2 6.3 -2.9 8.7 0.6 1.6 2.2 1.6 3.9 0.9 15 -3.1 43.2 -19.6 86.1 -45.9 118.7 -8.8 11 -28 29.5 -38.1 36.9 -10.4 7.6 -17.5 12.4 -18.5 12.4 -0.4 0 -4.5 2.2 -9.3 4.9 -17.1 9.8 -45.9 19.3 -68.1 22.5 -11.6 1.6 -32.2 2.7 -33.7 1.7z"/>
  <path d="M435 302.4 c-9.7 -3.1 -43.2 -11.4 -55.8 -13.8 -34.4 -6.7 -66.3 -10.2 -101.2 -11.3 -22.5 -0.6 -22.5 -0.6 -25 -3.5 -2.4 -2.8 -2.4 -2.8 -40.1 -2.8 -20.6 0 -37.8 -0.2 -38.1 -0.5 -0.5 -0.5 3 -14.3 9.7 -39 1.5 -5.5 4.5 -16.5 6.6 -24.5 2.1 -8 6.8 -25.7 10.4 -39.5 7.8 -29 13.2 -49.3 20.3 -76.5 8.5 -32.3 6 -28.5 19 -28.8 11.2 -0.3 11.2 -0.3 11.2 102.3 0 56.4 0.4 102.5 0.8 102.5 0.4 0 1.3 -0.5 1.9 -1.1 2.4 -2.4 66.8 1.7 91.8 5.7 20.5 3.4 50.3 9.1 61.2 12 30.1 7.7 35.7 9.4 38.1 12 2.7 3.1 2.7 3.5 0.2 6.2 -2.4 2.5 -4.6 2.6 -11 0.6z"/>
  <path d="M129.1 270 c-7.9 -3.4 -9 -4.3 -12.1 -10.2 -3 -5.5 -3.2 -6.6 -2.7 -12.7 0.3 -3.6 2.3 -13.1 4.5 -21.1 5 -18.1 8.6 -31.5 14.7 -54.5 2.6 -9.9 5.5 -20.7 6.5 -24 1 -3.3 3 -10.7 4.5 -16.5 1.5 -5.8 4.6 -17.5 7 -26 2.4 -8.5 4.9 -18 5.6 -21 2.6 -11.5 6.7 -17.3 14.6 -20.7 7.5 -3.1 18.9 -0.6 24.5 5.3 3.6 3.9 4.8 7.4 4.8 14.2 0 5.2 -0.9 9.2 -6.8 31.2 -1.1 4.1 -3.9 14.7 -6.3 23.5 -2.3 8.8 -6.1 23.2 -8.4 32 -2.3 8.8 -7 26.4 -10.3 39 -3.4 12.7 -7.7 28.7 -9.5 35.7 -3.7 14 -6.6 19.4 -12.5 23.2 -4.2 2.8 -14.2 4.2 -18.1 2.6z"/>
  <path d="M84.7 168 c-6.2 -3.9 -10.7 -10.9 -10.7 -16.7 0 -5.4 10.5 -47.4 13 -52.2 4.8 -8.9 10 -12.1 20 -12.1 12.4 0 21 8.3 21 20.2 0 5.7 -10.6 47.3 -13.5 52.8 -1.4 2.8 -7 7.7 -11.2 9.9 -1.2 0.6 -4.8 1.1 -8 1.1 -4.8 0 -6.8 -0.5 -10.6 -3z"/>
 </g>
 <g fill="#8eb4e2">
  <path d="M574 286.4 c-0.7 -0.8 -2.3 -1.4 -3.5 -1.2 -1.2 0.1 -3.3 -0.5 -4.8 -1.5 -2.6 -1.7 -2.7 -2.1 -2.7 -10.6 0 -9.9 1.2 -12.1 6.6 -12.1 1.7 0 3.5 -0.5 4.2 -1.2 0.8 -0.8 4.3 -1.1 10.8 -0.9 7.4 0.2 9.9 -0.1 11.2 -1.2 1.6 -1.4 1.7 -6.1 1.2 -57.6 -0.4 -42.7 -0.8 -56.3 -1.7 -57.2 -0.9 -0.9 -4.8 -1.2 -13 -1.1 -10.7 0.1 -12 -0.1 -15.7 -2.3 -4.1 -2.4 -4.1 -2.4 -3.7 -10.2 0.3 -7.7 2 -11.9 4.5 -11 0.6 0.3 1.8 -0.2 2.7 -1 1.3 -1.1 8.9 -1.4 41.6 -1.6 37.1 -0.2 40.1 -0.1 41.8 1.6 1.1 1 2.4 1.6 3.1 1.3 1.6 -0.6 4.6 6.9 4.7 11.6 0.1 3.4 -0.6 4.7 -3.8 7.9 -3.8 3.9 -3.8 3.9 -16.9 3.8 -12.3 0 -13.2 0.1 -14.8 2.1 -1.7 2.1 -1.8 6.2 -1.8 57.3 0 51.2 0.1 55.1 1.8 56.3 2.4 1.8 62.2 2 64 0.2 0.8 -0.8 1.2 -6.8 1.2 -20.3 0 -17.3 0.2 -19.4 1.8 -20.8 1 -1 2.5 -1.7 3.2 -1.7 0.7 0 2.1 -0.6 2.9 -1.4 2.2 -2 7.5 -2.3 9.6 -0.6 0.9 0.8 2.6 1.9 3.7 2.5 1.2 0.5 1.9 1.2 1.7 1.5 -0.2 0.3 0.4 1.6 1.4 3 1.5 2.2 1.7 5.7 1.7 34 0 23.2 -0.3 31.9 -1.2 32.8 -0.9 0.9 -18 1.2 -70.9 1.2 -61.7 0 -69.8 -0.2 -70.9 -1.6z"/>
 </g>
 <g fill="#ffc103">
  <path d="M357.7 241.7 c-1.4 -1.1 -3.6 -1.6 -5.9 -1.5 -2.8 0.2 -4.4 -0.4 -6.3 -2.2 -2.2 -2.1 -2.5 -3.1 -2.5 -10 0 -9 1.8 -12 7.4 -12 1.9 0 3.9 -0.7 4.6 -1.5 1 -1.2 4.2 -1.5 16.9 -1.5 10.9 0 16.1 -0.4 16.9 -1.2 0.9 -0.9 1.2 -15.1 1.2 -57.9 0 -56.7 0 -56.7 -2.6 -57.3 -1.4 -0.4 -10.1 -0.6 -19.4 -0.6 -16.7 0.2 -16.8 0.2 -20.9 -2.5 -4.1 -2.8 -4.1 -2.8 -4.1 -9.7 0 -5.5 0.4 -7.6 2.1 -10 1.2 -1.6 2.7 -2.7 3.3 -2.5 0.7 0.3 2 -0.1 3.1 -0.9 1.5 -1.2 11.1 -1.4 54 -1.4 45.5 0 52.3 0.2 54.3 1.6 1.2 0.8 2.2 1.2 2.2 0.9 0 -0.4 1.4 0.7 3 2.3 2.7 2.7 3 3.7 3 8.9 0 6.6 -0.2 6.9 -5.1 10.6 -3.6 2.7 -3.6 2.7 -22.2 2.7 -10.4 0 -18.8 0.4 -19.2 0.9 -0.4 0.7 -0.7 71.5 -0.5 114.4 0 1.5 1.5 1.7 16.4 1.7 13.3 0 16.7 0.3 18 1.5 0.8 0.8 3 1.5 4.9 1.5 5.5 0 7.7 3.2 7.7 11.4 0 6 -0.3 7.2 -2.7 10 -2.4 2.6 -3.4 3.1 -6.6 2.8 -2.5 -0.2 -4.5 0.2 -5.6 1.3 -1.6 1.3 -7.4 1.6 -47.5 1.8 -42.3 0.2 -45.8 0.1 -47.9 -1.6z"/>
 </g>
</svg>