<?xml version="1.0" encoding="utf-8"?>
<!DOCTYPE svg PUBLIC "-//W3C//DTD SVG 20010904//EN" "http://www.w3.org/TR/2001/REC-SVG-20010904/DTD/svg10.dtd">
<svg version="1.0" xmlns="http://www.w3.org/2000/svg" width="1511px" height="404px" viewBox="0 0 1511 404" preserveAspectRatio="xMidYMid meet">
 <g fill="#000000">
  <path d="M179.2 362.7 c-4.4 -1.4 -8.6 -6.4 -10.7 -12.9 -1 -2.9 -3.4 -7.1 -5.5 -9.4 -6.7 -7.3 -8 -15.4 -8.1 -49.1 0 -25 0.9 -38.7 5.2 -73.8 5.5 -46 14.3 -86.2 25.4 -117 6.3 -17.5 10.8 -26.4 15.6 -31.1 3.4 -3.3 4.6 -3.9 8.4 -3.9 8.5 0 12.7 5.5 13.3 17.7 0.7 14.5 -2.6 26.7 -18.5 67.7 -10.6 27.4 -13.2 36.4 -16.7 57.1 -2.7 16.2 -5.9 47.7 -5.4 52.9 l0.3 3.5 7.1 -9 c36.4 -45.5 78.8 -77.4 102.9 -77.4 19 0.1 32.9 18.3 31.1 40.8 -1.3 16.1 -9.3 32.8 -31.6 66.2 -4.2 6.3 -7.9 12 -8.4 12.7 -2.8 4.7 41.9 -17.5 79.9 -39.7 11.6 -6.7 21.2 -12.4 21.4 -12.6 0.1 -0.1 0.7 -4 1.2 -8.6 3.8 -34.8 16.3 -63.8 38.2 -88.9 12.6 -14.4 26.7 -23.4 40.8 -26 5.7 -1 7.2 -1 11.9 0.6 7 2.3 13.6 8.9 18.1 18 3.2 6.6 3.4 7.5 3.3 17.5 -0.1 15.8 -4.7 27.8 -16.4 42.5 -7.9 9.9 -30.4 31.1 -49.3 46.4 -17.4 14.1 -17.7 14.4 -17.7 18.2 0 10.8 8.4 22.6 19 26.4 8 2.9 26.5 2.8 37.6 -0.2 30.2 -8.3 52.5 -24.4 106.8 -77.4 l18.8 -18.4 1.4 -10.4 c1.6 -12.9 3.5 -18.5 8.5 -26 5.8 -8.7 10.1 -11.6 17.1 -11.6 4.9 0 6.2 0.4 8.4 2.6 4.9 4.9 4.8 9 -0.8 28.2 -7.6 26.6 -7.9 28.6 -8.4 54.2 l-0.4 23 1.9 -4 c1.1 -2.2 5.3 -11 9.4 -19.5 15.2 -31.9 41.9 -66.1 61.6 -78.8 10.5 -6.8 16.1 -8.6 27.6 -8.6 9 -0.1 10.6 0.2 15.7 2.7 6.2 3 11.5 8.3 15 14.9 1.8 3.4 2.3 5.9 2.3 12.5 0 7.2 -0.3 8.4 -2.4 10.7 -4.9 5.2 -13.1 4.2 -21.7 -2.5 -8.6 -6.8 -10.6 -7.9 -15 -7.9 -17.3 0 -55.6 43.5 -71.2 80.9 -9.2 22.1 -11.4 29.6 -14.1 47.7 -2.2 14.3 -5.2 23.9 -8.1 25.4 -2.9 1.5 -10.8 1.2 -14.7 -0.6 -3.9 -1.9 -7.5 -6.3 -9.2 -11.4 -2.4 -7.1 -5.4 -46.7 -5.4 -72.3 l-0.1 -24.9 -3.1 3.8 c-13.9 17.6 -37.9 42.2 -55 56.5 -24.4 20.2 -49.8 34.8 -70.5 40.5 -8.8 2.5 -29.9 2.5 -38.8 0.1 -13.9 -3.7 -24.1 -10.9 -31.3 -22 -3.7 -5.7 -8.1 -17.5 -9.4 -24.9 -0.3 -2.1 -0.7 -3.8 -0.9 -3.8 -0.1 0 -11.9 7 -26.2 15.6 -26.7 16.1 -46.9 26.5 -82.4 42.4 -26.4 11.9 -31.8 14.6 -47.5 24.1 -10 6 -14.9 8.4 -20.9 9.9 -8.7 2.2 -23.7 2.6 -29.4 0.7z m19.3 -26.2 c18.5 -6.1 34.2 -15.4 45.6 -27.2 8.8 -9.1 31.2 -38.9 38.8 -51.5 5.5 -9.2 12 -24 13.9 -32 3.2 -12.8 -0.9 -20.8 -10.5 -20.8 -5.2 0 -16.7 5.8 -32.1 16.2 -7.7 5.2 -14.7 11.3 -25.3 21.9 -19.2 19.3 -26.1 28.1 -34.1 43.6 -9.3 17.8 -11.8 26 -11.8 38.2 0 12.9 0.4 14.1 4.5 14.1 1.8 0 6.7 -1.1 11 -2.5z m228 -110.7 c22.7 -19.5 37.5 -37 42.4 -50.1 4.6 -12.7 1 -24.7 -7.6 -24.7 -15.9 0 -38.4 35.6 -45.7 72 -2.8 14.4 -2.8 14.5 -0.9 12.9 1 -0.8 6.3 -5.4 11.8 -10.1z"/>
  <path d="M803.5 342.2 c-2.2 -1 -5.4 -3.5 -7.2 -5.5 -6.7 -7.7 -6 -17.5 5.1 -73.7 4.4 -22.3 18.2 -107.4 21.1 -130.5 0.8 -6.6 1.9 -19.6 2.5 -29 1.8 -30 4.8 -37.5 16 -40.5 9.3 -2.5 17.4 1 21.5 9.4 4.4 9 4.3 12.4 -1.5 39.1 -9.3 43.3 -15.8 76.7 -18.9 96.5 -1.7 10.7 -5.4 32.8 -8.2 49 -3.2 18.7 -5.1 32.9 -5.2 38.8 l-0.2 9.3 3.4 3.1 c3.2 2.9 3.7 3 9.5 2.4 8.5 -1 17.3 -3 37.6 -8.7 45 -12.5 96.9 -19.8 113.5 -15.9 10.8 2.5 11.6 15.3 1.5 24.3 -7.3 6.7 -8.7 7 -36.5 7.8 -31.6 1 -40.8 2.4 -75 11.4 -54.1 14.4 -51.4 13.8 -63.5 14.2 -9.7 0.3 -12.1 0.1 -15.5 -1.5z"/>
  <path d="M42.3 330 c-3.3 -1.3 -8.1 -8.6 -10 -14.9 -1.3 -4.6 -1.5 -9 -1 -26.1 0.5 -20.2 1.6 -30.5 7.3 -67 3.8 -24.9 28.1 -146.9 30.1 -151.4 2.8 -6.4 6.5 -9.6 11 -9.6 4.8 0 11 2.9 14.5 6.6 5 5.4 6.9 10.6 7.4 20.1 0.5 8.2 0.3 9.5 -2.9 18.3 -1.9 5.2 -5.3 14.5 -7.5 20.5 -5 13.9 -10 43.9 -16.2 99 -1.1 9.9 -3 24.8 -4.1 33 -1.1 8.3 -2.3 20.9 -2.6 28 -0.5 12.2 -0.4 13.3 1.7 17.5 4.5 8.8 2.8 14.1 -6.7 20.5 -8.5 5.8 -15.6 7.6 -21 5.5z"/>
  <path d="M1231.5 327.9 c-6.8 -4 -11.5 -11.6 -14.1 -22.6 -2.5 -10.5 -1.3 -26.8 2.9 -39.3 l3.2 -9.7 -9.5 8.8 c-33.3 30.8 -65.1 49.9 -93.2 56 -11.4 2.5 -29.5 2.7 -39.1 0.5 -32.3 -7.5 -46.9 -35.2 -42.8 -81.1 3.6 -39 17.5 -70.8 41.6 -95.1 7.7 -7.8 10.4 -9.8 18.5 -13.7 22.9 -11.1 38.7 -6.9 48.4 12.9 2.1 4.2 2.9 7.7 3.3 13.3 1.2 18.1 -6.9 34.6 -26.6 54.1 -10.6 10.5 -36.8 32.4 -49 41 -8.5 6.1 -9.1 6.7 -9.1 10 0 7.9 4.1 17 9.9 22.3 7.9 7.2 15.9 9.7 30.6 9.7 34.4 0 75.3 -23.1 123.9 -70.1 10.5 -10.1 14.7 -15 19.1 -22.2 18.2 -29.2 43 -55.5 58.7 -62 6.4 -2.7 18 -4.8 27.8 -5 8 -0.2 10.1 0.1 13 1.8 7.6 4.5 15.6 20.9 18.1 37.5 1.7 11.1 1.9 11.2 4.5 2 5.4 -18.9 9.2 -44.7 12.4 -84 3.4 -40.7 4.4 -45.1 10.9 -48.4 6.6 -3.5 18.2 -2.7 23.7 1.6 2.5 2 2.6 2.5 2.1 8.7 -0.3 3.6 -2.6 16.7 -5.1 29 -5.6 27.2 -13 70.2 -15 86.8 -5.3 43.3 -1.3 96.2 8.9 116.4 5.9 11.6 11.4 14.8 22.2 12.9 14 -2.4 23.1 -8.7 42.7 -29.3 7.7 -8.1 14.9 -15 16 -15.3 5 -1.6 6.1 8.1 2.1 17.3 -5.7 12.7 -26.1 36.2 -39 44.7 -3.2 2.2 -9.3 5.3 -13.4 7 -6.6 2.6 -8.9 3 -17.6 3 -12.5 0.1 -17.1 -1.9 -26.5 -11.3 -14.2 -14.4 -21.3 -39 -22.9 -79.3 l-0.6 -15.8 -6.6 11.3 c-17.9 30.2 -46.5 61.8 -71 78.2 -17.3 11.7 -33.3 17.4 -50.9 18.1 -7 0.3 -11.2 0.1 -12.5 -0.7z m39.8 -30.7 c9 -4.4 24.4 -15.1 34.2 -23.7 7.4 -6.5 33.4 -34.5 38.2 -41.1 3.4 -4.9 9.3 -15.6 9.3 -17.1 0 -0.5 -1 -1.3 -2.2 -1.8 -6.1 -2.8 -7.1 -7.8 -5.4 -27.5 l0.8 -9.5 -3.3 -6.5 c-5.9 -11.2 -14.2 -15.5 -22.2 -11.4 -13.4 7 -46.3 50.8 -62.5 83.2 -9.6 19.2 -13.2 30 -13.9 40.8 -1.3 19.6 7.4 24.3 27 14.6z m-173.5 -89.2 c23.4 -20.4 31.7 -40.2 22.1 -52.4 -6 -7.6 -20.5 1.1 -32.4 19.4 -9.6 14.8 -14.9 27.8 -18.9 46.8 l-2.4 11.1 11.7 -8.8 c6.4 -4.9 15.3 -12.2 19.9 -16.1z"/>
 </g>
</svg>